<?xml version="1.0" standalone="no"?>
<!DOCTYPE svg PUBLIC "-//W3C//DTD SVG 20010904//EN"
 "http://www.w3.org/TR/2001/REC-SVG-20010904/DTD/svg10.dtd">
<svg version="1.0" xmlns="http://www.w3.org/2000/svg"
 width="500.000000pt" height="500.000000pt" viewBox="0 0 500.000000 500.000000"
 preserveAspectRatio="xMidYMid meet">
<metadata>
Created by potrace 1.11, written by Peter Selinger 2001-2013
</metadata>
<g transform="translate(0.000000,500.000000) scale(0.100000,-0.100000)"
fill="#000000" stroke="none">
<path d="M0 2500 l0 -2500 2500 0 2500 0 0 2500 0 2500 -2500 0 -2500 0 0
-2500z m4144 1978 c183 -71 313 -222 352 -408 12 -61 14 -286 12 -1608 l-3
-1537 -25 -65 c-73 -185 -219 -314 -403 -355 -64 -14 -234 -15 -1612 -13
l-1540 3 -59 23 c-167 63 -281 175 -345 340 l-26 67 -3 1540 c-2 1111 0 1557
8 1600 41 214 232 401 450 438 14 3 723 4 1575 3 l1550 -1 69 -27z"/>
<path d="M985 4383 c-180 -24 -332 -166 -365 -342 -14 -78 -14 -2997 1 -3077
16 -87 55 -162 118 -225 67 -66 146 -107 232 -119 92 -14 2976 -13 3058 1 175
28 318 168 350 344 14 76 15 2973 1 3059 -30 183 -173 326 -356 356 -56 9
-2971 12 -3039 3z m2125 -399 c188 -35 321 -105 439 -229 81 -86 126 -159 142
-232 10 -45 10 -56 -5 -77 -13 -20 -25 -26 -55 -26 -46 0 -60 14 -91 94 -34
86 -109 195 -171 249 -117 103 -261 151 -449 150 -367 -1 -812 -203 -1138
-517 -201 -194 -281 -351 -269 -531 12 -191 131 -357 384 -535 245 -172 499
-330 530 -330 19 0 72 24 144 66 167 98 330 175 359 172 33 -4 38 -34 9 -64
-12 -13 -52 -40 -88 -60 -100 -55 -289 -184 -296 -202 -4 -12 14 -34 62 -76
235 -206 317 -319 317 -440 0 -37 -7 -73 -17 -92 -24 -46 -92 -100 -156 -126
-51 -20 -73 -22 -246 -23 -206 0 -265 10 -373 63 -63 31 -145 116 -162 168
-19 55 -6 134 31 205 24 45 66 93 162 184 83 79 127 127 122 135 -4 7 -139 99
-299 205 -320 211 -417 288 -495 391 -162 215 -183 426 -67 669 178 369 733
729 1248 809 128 19 326 20 428 0z"/>
<path d="M2369 1778 c-63 -45 -173 -158 -202 -209 -88 -152 -8 -270 213 -315
113 -22 238 -16 304 15 133 65 112 203 -59 377 -87 88 -179 164 -199 164 -7 0
-33 -14 -57 -32z"/>
</g>
</svg>
